<svg width="88" height="24" viewBox="0 0 88 24" fill="none" xmlns="http://www.w3.org/2000/svg">
<path d="M25.2525 6.06653L21.4757 6.59971C21.824 6.12237 22.1723 5.64684 22.5152 5.1749C22.8471 4.71918 23.1826 4.25625 23.5236 3.79152C23.8701 3.3286 24.2148 2.86207 24.5522 2.39914L24.5996 2.3343L24.5941 2.33069C24.7291 2.08572 24.6215 1.85336 24.4428 1.72547C24.2185 1.56515 23.8738 1.55074 23.6531 1.78851H23.6495L19.8927 6.82307L16.4004 7.31661C16.0758 7.36165 15.9664 7.61563 15.9992 7.84619C16.0393 8.11818 16.2636 8.37216 16.5864 8.37216C16.6156 8.37216 16.6448 8.37036 16.6758 8.36676L18.9864 8.04073L17.9979 9.36646C16.3056 11.6343 14.2266 13.3977 11.8175 14.6082C11.2358 14.9 10.6631 15.1882 10.1015 15.4728C10.3148 13.6967 9.46135 12.0918 7.55745 10.6958C6.5216 9.93747 5.3654 9.28901 4.11801 8.77204C3.97577 8.7126 3.80981 8.64956 3.63292 8.58291C2.67549 8.21725 1.36428 7.7165 1.14361 6.91133C1.04878 6.56729 1.16915 6.18361 1.49923 5.77473C2.391 4.66874 3.88094 3.99507 5.19398 3.40065L5.38181 3.31599C6.89728 2.6279 8.48934 2.08572 10.1142 1.70565L10.3422 1.65161C11.7646 1.31478 13.5372 0.898681 14.9743 1.12024C15.4302 1.19049 15.7111 1.37422 15.8114 1.66602C16.125 2.58647 14.6169 4.4706 13.7761 5.33882C13.53 5.5928 13.6047 5.92063 13.8053 6.10976C13.9932 6.28629 14.3068 6.36014 14.5549 6.10436C16.218 4.38955 17.0332 2.96294 16.9767 1.86416C16.9475 1.32198 16.7068 0.855451 16.26 0.480786C15.5214 -0.13705 14.3925 -0.0181663 13.4862 0.0773011C13.3768 0.08991 13.2692 0.100718 13.167 0.109724C11.8303 0.234012 10.4826 0.475382 9.16045 0.824829C5.97086 1.66782 3.43779 2.79182 1.63053 4.16979C0.933892 4.69216 0.0129413 5.51714 0.000175619 6.60691C-0.01259 7.576 0.671285 8.48204 1.82567 9.03143C2.33994 9.2764 2.87063 9.49796 3.43414 9.73392C5.39823 10.5535 7.42797 11.4019 8.56593 13.2122C9.15315 14.1452 9.16957 15.1377 8.8796 16.0906C7.12706 16.9876 5.44747 17.8721 3.76057 18.8195C3.60739 18.906 3.45055 18.9925 3.29189 19.0789C2.38371 19.5743 1.44452 20.0876 0.802589 20.891C0.22631 21.6115 -0.147541 22.6671 0.313846 23.402C0.563688 23.8001 0.926598 24 1.40075 24C1.7126 24 2.07004 23.9135 2.47489 23.7424C3.56909 23.2759 4.60858 22.6743 5.56418 21.952C6.78239 21.0297 8.84313 19.205 9.74037 16.8544C10.2328 16.604 10.7361 16.3518 11.2485 16.0978C13.5828 14.9414 15.3682 13.7598 16.8126 12.3926C16.5299 13.6877 16.6612 15.0531 17.1955 16.1212C17.6989 17.1281 18.5304 17.8288 19.6028 18.1477C19.9474 18.2485 20.1827 18.0342 20.2575 17.7892C20.3377 17.5244 20.2392 17.2038 19.8982 17.1029C18.4593 16.6778 17.8375 15.2818 17.7335 14.1182C17.6004 12.616 18.3554 11.1875 18.9353 10.2437C19.3055 9.64206 19.6958 9.04764 20.1006 8.46042C20.2611 8.24787 20.4161 8.03532 20.5748 7.82097L25.526 7.12208C25.8506 7.07705 25.9619 6.82307 25.9272 6.5907C25.8853 6.29529 25.6172 6.0233 25.2525 6.07194V6.06653ZM5.72284 20.4191C4.76541 21.2675 3.67486 21.9844 2.48036 22.5518C2.34541 22.6148 2.21046 22.6779 2.07368 22.7373C1.86579 22.8274 1.55576 22.903 1.3661 22.8274C1.28951 22.7967 1.23662 22.7445 1.2038 22.6671C1.09438 22.4041 1.45546 21.8006 1.6743 21.5377C2.08463 21.0387 2.6682 20.7001 3.23901 20.3686C4.77271 19.4788 6.38848 18.5908 8.12461 17.6829C7.38602 18.8502 6.37571 19.8409 5.72284 20.4191Z" fill="#050000"/>
<path d="M48.5126 13.4173C50.6736 11.1441 53.3051 7.75589 51.2207 4.60187C50.3581 3.29594 48.963 2.32686 47.0755 1.72163C45.1734 1.1128 43.2422 1.02274 41.9583 1.05156C38.156 1.14162 34.2971 2.54842 31.0892 5.01616C30.9452 5.12784 30.8777 5.27554 30.8996 5.43405C30.9251 5.62139 31.0728 5.79251 31.2734 5.87357C31.4722 5.95462 31.6838 5.9258 31.8534 5.79611C34.4229 3.82012 37.5359 2.55202 40.6161 2.22419C46.6816 1.58294 49.2566 3.9372 49.9004 4.67392C52.3678 7.49291 49.6943 10.7694 47.0901 13.3092C44.898 15.4473 42.2173 17.2504 39.1261 18.6698C37.7693 19.2912 36.3232 19.8334 34.784 20.309C35.829 17.6683 36.8247 14.9772 37.7876 12.3654C38.7578 9.73189 39.7626 7.01017 40.813 4.35689C40.8805 4.18577 40.8604 4.02186 40.7583 3.89397C40.6398 3.74626 40.4191 3.66701 40.2076 3.70123C39.9997 3.73185 39.8356 3.86154 39.759 4.05608C38.7067 6.71116 37.7037 9.43288 36.7317 12.0663C35.6849 14.9051 34.6016 17.8394 33.4582 20.6962C31.6874 21.179 29.7963 21.5807 27.7501 21.8977C27.5678 21.9247 27.4346 22.0238 27.3763 22.1751C27.307 22.3534 27.3507 22.575 27.4857 22.7407C27.5988 22.8776 27.7574 22.9532 27.9307 22.9532C27.9617 22.9532 27.9945 22.9496 28.0273 22.946C36.925 21.5644 43.8184 18.36 48.5144 13.4191L48.5126 13.4173Z" fill="#050000"/>
<path d="M87.7497 12.7344C87.4306 12.7344 87.1133 13.1433 86.6993 13.5522C86.3163 13.8981 85.9024 14.1809 85.1711 14.1809C84.4398 14.1809 83.7048 12.167 83.7048 11.9779C83.7048 11.7581 85.7109 9.64885 86.4768 8.61132C86.7959 8.13938 87.2409 7.69807 87.2409 7.32161C87.2409 7.03881 86.9546 6.81725 86.6683 6.81725C86.2853 6.81725 86.0628 7.25856 85.5212 7.98087C84.6294 9.17692 83.3875 10.2775 83.2599 10.2775C83.1012 10.2775 83.165 7.91783 81.8265 7.91783C81.3158 7.91783 80.1377 9.17692 79.4375 9.93165C79.2824 10.0848 79.1603 10.2379 79.0764 10.3964C77.8928 11.9022 75.9251 13.9593 75.1701 13.9593C74.9148 13.9593 74.7561 13.7071 74.7561 13.2352C74.7561 12.7633 74.9148 12.0716 75.1701 11.2844C75.3926 10.5297 75.8704 9.77314 76.1895 9.33363C76.412 9.05083 76.5725 8.70498 76.5725 8.60952C76.5725 8.32672 76.4448 8.01149 75.9032 8.01149C75.7117 8.01149 75.3944 8.26367 75.1063 8.64014C74.6595 9.20574 74.0558 10.4018 73.578 11.1889C72.6224 12.6354 70.5197 14.1772 69.9471 14.1772C69.628 14.1772 69.5641 13.9881 69.5641 13.7359C69.5641 12.8227 71.5392 10.5891 71.5392 8.732C71.5392 8.19703 71.4753 7.75751 70.8699 7.75751C70.6346 7.75751 70.4632 7.84037 70.341 7.98087C70.1459 8.19162 69.9489 8.64374 69.9489 8.64374C68.7672 10.4756 67.7131 11.7383 66.535 12.738C66.0116 13.1829 64.4323 14.5231 63.2269 14.5231C63.2123 14.5231 63.1977 14.5231 63.1831 14.5231C62.9096 14.5159 62.698 14.4276 62.5558 14.2655C62.3406 14.0187 62.2676 13.5918 62.3369 12.9974C63.2287 12.3147 64.0877 11.5942 64.8883 10.8575C65.4445 10.3459 66.639 9.0166 65.7326 7.70708C65.4828 7.34502 65.1764 7.1631 64.8244 7.1631H64.8007C63.9545 7.18291 63.0591 8.26367 62.6652 8.89772C62.2549 9.55699 61.9722 10.2811 61.7497 10.9043C61.7096 11.016 61.6677 11.1295 61.6257 11.243C61.4798 11.6339 61.3285 12.0391 61.2427 12.4498C60.8725 12.7362 60.5789 12.9506 60.2926 13.1451C60.0026 13.3433 59.7127 13.5522 59.4045 13.7738C58.5711 14.3772 57.7085 14.9986 56.8222 15.3715L56.793 15.3841C56.0435 15.6993 55.8119 15.6471 55.7535 15.5588C55.7371 15.4634 55.9869 14.9302 56.0945 14.7032C56.1456 14.5933 56.1857 14.5069 56.2003 14.4691C56.4483 13.8134 56.7346 13.1649 57.01 12.5381L57.1358 12.2535C57.7322 10.8971 58.2264 9.46692 58.7042 8.08174L58.9358 7.41347C59.0033 7.21893 58.9577 7.0316 58.81 6.89831C58.6367 6.7416 58.3522 6.69657 58.137 6.79203C56.7875 7.39006 55.3414 7.99168 53.7967 8.23125C53.4703 8.28169 53.3609 8.54107 53.3973 8.77523C53.4429 9.06704 53.7128 9.33543 54.0721 9.27959C55.3359 9.08505 56.4866 8.66175 57.4605 8.26007C57.0392 9.39127 56.5851 10.5243 56.1438 11.623C55.9103 12.2049 55.6769 12.7867 55.4471 13.3721C55.3487 13.6225 55.2556 13.8728 55.1608 14.125C55.0532 14.4096 54.9474 14.696 54.8326 14.9806C54.8052 15.0509 54.7687 15.1229 54.7341 15.195C54.6247 15.4183 54.5025 15.6705 54.5572 15.9299C54.6702 16.4685 55.2684 16.7008 55.8155 16.7008C55.8502 16.7008 55.8866 16.7008 55.9213 16.6972C56.6416 16.6576 57.3456 16.3946 58.1352 15.8722C58.4799 15.6435 58.8246 15.4183 59.1711 15.1932C59.7255 14.8311 60.2999 14.4546 60.8579 14.0764C60.9637 14.0043 61.0695 13.9287 61.1734 13.853L61.2555 13.7936C61.4123 14.5213 61.7588 15.0851 62.2403 15.3877C62.6543 15.6489 63.1466 15.7101 63.7047 15.5678C65.5776 15.0905 67.2754 13.9017 68.9696 11.8698C68.5338 12.63 68.1362 13.3685 68.1362 14.08C68.1362 14.5843 68.4225 15.3697 69.4748 15.3697C70.8133 15.3697 72.5331 13.7972 73.6801 12.6642C73.6801 12.8839 73.6163 13.1667 73.6163 13.5144C73.6163 14.2691 73.8388 15.1499 74.9549 15.1499C76.3573 15.1499 78.522 12.6948 80.052 10.9025C80.2253 10.6846 80.342 10.5297 80.4186 10.3946C80.8818 9.82357 81.2538 9.45611 81.5183 9.45611C81.8374 9.45611 82.1237 11.061 82.1237 11.533C82.1237 12.0373 79.4794 14.7735 78.1737 15.7804C77.7269 16.1262 77.4405 16.3784 77.4405 16.6306C77.4405 17.0088 77.632 17.2592 78.046 17.2592C78.429 17.2592 78.6515 17.007 79.1293 16.5982C80.4988 15.4345 82.3462 13.3883 82.5705 13.3883C82.8568 13.3883 83.5261 15.4652 84.8009 15.4652C86.2033 15.4652 87.126 14.678 87.7315 14.08C88.1455 13.6387 88.2093 13.4189 88.2093 13.1667C88.2093 12.9146 88.0816 12.7254 87.7625 12.7254L87.7497 12.7344ZM62.8074 11.1817C63.1011 10.3351 63.712 8.56989 64.6366 8.46722C64.6676 8.46361 64.6968 8.46181 64.7223 8.46181C64.839 8.46181 64.9156 8.49424 64.9503 8.56088C65.0852 8.82027 64.6603 9.53177 64.4378 9.77494C64.1643 10.074 63.8396 10.3369 63.526 10.5909C63.4457 10.6558 63.3655 10.7188 63.2871 10.7855C63.1248 10.9187 62.9643 11.052 62.8056 11.1853L62.8074 11.1817Z" fill="#050000"/>
<path d="M19.8511 9.03262C19.6701 8.9341 19.4109 8.92191 19.2227 9.00114C19.1083 9.04989 19.0229 9.13115 18.991 9.22358C18.9736 9.27335 18.9722 9.32312 18.9852 9.37086C18.9722 9.4257 18.9765 9.48258 18.9983 9.53845C19.0185 9.5872 19.0518 9.63291 19.0982 9.67049V9.67252V9.67151C19.201 9.75784 19.3588 9.81269 19.5267 9.81269C19.5325 9.81269 19.5383 9.81269 19.5456 9.81269C19.6846 9.80964 19.8178 9.77003 19.9133 9.70299C19.9901 9.65018 20.0364 9.58212 20.061 9.48868C20.1102 9.29468 20.0364 9.13318 19.8511 9.03262Z" fill="#050000"/>
</svg>
